PathFileType	4	(X/Y/Z)	C:\Users\GVLAB1\Desktop\Emotion\trc\EMLATRE05.4.trc																																																																																																																									
DataRate	CameraRate	NumFrames	NumMarkers	Units	OrigDataRate	OrigDataStartFrame	OrigNumFrames																																																																																																																					
30	30	4	41	mm	30	189	302																																																																																																																					
Frame#	Time	EMLA_LFHD			EMLA_RFHD			EMLA_LBHD			EMLA_RBHD			EMLA_LFTShould			EMLA_RFTShould			EMLA_LRRShould			EMLA_RRRShould			EMLA_T10			EMLA_STRN			EMLA_TRUN			EMLA_LSHO			EMLA_LUPA			EMLA_LELB			EMLA_LFRM			EMLA_LWRA			EMLA_LWRB			EMLA_LFIN			EMLA_RSHO			EMLA_RUPA			EMLA_RELB			EMLA_RFRM			EMLA_RWRA			EMLA_RWRB			EMLA_RFIN			EMLA_LFWT			EMLA_RFWT			EMLA_LBWT			EMLA_RBWT			EMLA_LHTI			EMLA_LKNE			EMLA_LSHN			EMLA_LANK			EMLA_LHEE			EMLA_LTOE			EMLA_RTHI			EMLA_RKNE			EMLA_RSHN			EMLA_RANK			EMLA_RHEE			EMLA_RTOE		
		X1	Y1	Z1	X2	Y2	Z2	X3	Y3	Z3	X4	Y4	Z4	X5	Y5	Z5	X6	Y6	Z6	X7	Y7	Z7	X8	Y8	Z8	X9	Y9	Z9	X10	Y10	Z10	X11	Y11	Z11	X12	Y12	Z12	X13	Y13	Z13	X14	Y14	Z14	X15	Y15	Z15	X16	Y16	Z16	X17	Y17	Z17	X18	Y18	Z18	X19	Y19	Z19	X20	Y20	Z20	X21	Y21	Z21	X22	Y22	Z22	X23	Y23	Z23	X24	Y24	Z24	X25	Y25	Z25	X26	Y26	Z26	X27	Y27	Z27	X28	Y28	Z28	X29	Y29	Z29	X30	Y30	Z30	X31	Y31	Z31	X32	Y32	Z32	X33	Y33	Z33	X34	Y34	Z34	X35	Y35	Z35	X36	Y36	Z36	X37	Y37	Z37	X38	Y38	Z38	X39	Y39	Z39	X40	Y40	Z40	X41	Y41	Z41
																																																																																																																												
189	0.94	374.10828	1491.60034	152.5444	205.45332	1471.01636	135.38918	390.68176	1568.36243	23.74596	197.4183	1548.86462	4.63653	391.64987	1322.90527	12.52867	246.84259	1311.46472	0.76696	401.08603	1403.83655	-121.74256	237.49013	1388.71057	-135.14194	342.23587	1240.104	-210.92012	319.65894	1246.77551	32.08173	318.21692	1141.68115	31.92287	520.47125	1354.44238	-12.02362	570.09595	1168.80286	-29.67219	573.12024	1019.67291	-39.35155	564.55939	885.28809	-43.1182	469.74258	745.78009	27.22015	523.93884	721.14514	-35.55342	519.83429	693.21265	29.46142	124.8707	1349.40808	-60.64721	76.36371	1151.08911	-80.46564	68.56244	1010.23407	-116.27503	71.25772	909.78522	-132.33101	149.231	740.80585	-50.14884	101.21649	728.75305	-121.95018	91.71204	691.82251	-69.11627	437.80963	937.18262	-4.91562	203.28728	931.4245	-25.51403	419.16394	952.7088	-210.75356	240.13254	950.0788	-213.77119	484.90115	659.36743	-164.54704	523.80585	466.87045	-97.35369	491.17114	299.39981	-177.2337	480.95593	201.16385	-338.52631	418.82901	183.94061	-431.32224	389.75125	50.15276	-299.59625	206.20638	635.27472	-114.33334	195.83987	471.68433	37.26138	277.76654	256.06439	49.07289	271.7085	96.20375	-37.22222	339.75403	55.78205	-89.97587	289.017	47.18016	107.37101
190	0.945	370.83585	1502.82397	161.39783	203.03831	1473.71765	150.72014	380.19412	1573.22034	28.16763	187.50906	1544.09851	16.39233	390.27844	1326.45349	26.18037	245.53741	1310.17432	21.76281	390.9108	1402.86377	-110.70424	227.57765	1383.69006	-115.29843	331.72964	1236.08826	-193.24039	321.39462	1247.58789	50.43478	322.37378	1142.51868	52.25585	517.72778	1360.14075	-6.03684	568.94031	1174.8905	-25.32914	573.31604	1025.94922	-42.28696	566.8642	891.08771	-41.51652	491.97684	751.26117	49.15084	531.1037	726.09625	-23.12963	543.42743	700.21466	40.89753	120.1539	1343.58398	-34.02102	73.16327	1144.302	-45.56634	64.44707	1002.83972	-77.07006	65.13959	903.48657	-93.67832	147.05295	732.68353	-19.54229	92.30059	722.13867	-86.53745	87.8861	684.14575	-33.95889	438.86542	934.06696	11.87649	203.3578	931.2334	2.63567	409.33344	947.60571	-193.97417	230.86192	948.01746	-187.71364	481.67889	656.48773	-145.94295	533.53009	467.9819	-77.67343	504.5845	299.89438	-157.56067	495.58417	203.26901	-319.9642	437.22342	192.131	-410.29532	396.95062	47.83074	-294.22446	205.02951	629.48151	-93.60523	193.45731	469.8812	55.90862	277.00031	251.92778	58.87011	271.3905	96.09426	-34.48619	339.68253	57.04734	-89.60912	289.56506	47.24012	106.56447
191	0.95	367.31708	1515.83386	168.93542	200.91415	1478.36426	164.51466	369.86215	1579.5542	32.07913	178.57431	1540.80981	27.17747	390.65494	1330.94128	38.03631	245.91325	1310.78247	41.65956	380.76028	1403.28491	-101.46959	218.25871	1380.7113	-95.65372	320.72049	1233.50708	-176.44759	324.53967	1250.83618	66.9339	327.43503	1145.87476	71.09426	515.21124	1367.65503	-4.53056	569.47614	1182.63977	-27.68276	574.04694	1034.04004	-36.29589	569.63751	898.94623	-31.97834	510.27774	758.61511	69.53888	540.57776	734.39801	-7.15	561.90729	709.17871	54.16443	117.01775	1339.99023	-7.42615	71.78821	1140.20496	-11.28635	61.94877	998.34442	-38.56398	59.9778	899.85474	-53.94069	144.99982	727.25586	13.52947	83.00426	718.33746	-47.46936	83.87009	679.9281	4.88455	437.28241	934.04443	28.13621	202.59653	930.91614	28.11885	401.7822	945.47052	-175.90872	223.38252	948.33069	-163.35422	484.40906	655.97174	-125.1744	538.14709	468.80295	-57.65151	511.68732	301.13263	-139.27609	507.55685	207.11115	-302.66986	452.81686	200.14255	-391.50409	404.52911	47.73066	-289.24884	197.80595	631.73132	-71.3171	194.73882	465.13513	72.96459	278.85352	248.78679	66.13235	271.8139	96.12114	-32.39835	339.84039	57.9983	-89.45285	290.51016	47.14712	106.39748
192	0.955	363.91959	1530.07129	174.95589	199.31145	1485.47644	177.48148	359.99396	1586.31433	34.94832	170.37979	1539.25549	37.47825	390.80615	1337.8103	48.44944	246.86559	1313.64807	60.64383	370.89072	1405.33508	-92.27404	209.75343	1380.08484	-75.84076	309.97195	1233.36755	-160.22192	327.65274	1255.59314	82.33328	332.26028	1150.8075	88.24331	512.04626	1375.36218	-3.59334	566.80151	1191.026	-23.25607	577.42438	1042.60083	-24.95975	577.93109	908.27289	-15.74321	523.74426	766.66772	88.34409	555.09943	744.59204	11.11516	575.31299	717.46094	71.67999	114.87821	1338.92261	18.84856	71.69172	1138.53247	21.9	60.10521	996.70868	-0.82151	56.13895	898.65289	-14.19687	143.37402	725.62439	49.99945	76.62973	717.16492	-6.62219	80.52997	679.31451	46.21169	437.8941	937.55853	41.94436	203.82204	932.31311	52.29521	394.18533	947.18713	-159.49425	216.61246	950.18005	-139.27104	480.03342	658.83392	-109.68492	537.81189	471.57779	-38.90888	514.25397	304.54474	-121.73288	516.16504	211.82967	-286.21594	464.77634	206.63248	-375.72238	411.77722	49.5989	-281.22989	193.77306	633.15991	-51.16851	198.00002	464.03076	86.54855	281.56543	247.1331	70.98659	271.62097	96.33503	-30.54083	339.25952	58.74865	-89.43872	290.96484	47.17415	106.22594
